<svg width="190" height="24" viewBox="0 0 190 24" fill="none" xmlns="http://www.w3.org/2000/svg">
<path d="M13.8681 0.826265L16.915 7.06064L23.8056 8.04502C25.0243 8.23252 25.4931 9.73252 24.6025 10.6231L19.6806 15.4513L20.8525 22.2481C21.04 23.4669 19.7275 24.4044 18.6493 23.8419L12.5087 20.6075L6.41496 23.8419C5.33684 24.4044 4.02434 23.4669 4.21184 22.2481L5.38371 15.4513L0.461836 10.6231C-0.428789 9.73252 0.0399611 8.23252 1.25871 8.04502L8.10246 7.06064L11.1962 0.826265C11.7118 -0.25186 13.3056 -0.298735 13.8681 0.826265Z" fill="#D98900"/>
<path d="M54.9324 0.826265L57.9792 7.06064L64.8699 8.04502C66.0886 8.23252 66.5574 9.73252 65.6667 10.6231L60.7449 15.4513L61.9167 22.2481C62.1042 23.4669 60.7917 24.4044 59.7136 23.8419L53.573 20.6075L47.4792 23.8419C46.4011 24.4044 45.0886 23.4669 45.2761 22.2481L46.448 15.4513L41.5261 10.6231C40.6355 9.73252 41.1042 8.23252 42.323 8.04502L49.1667 7.06064L52.2605 0.826265C52.7761 -0.25186 54.3699 -0.298735 54.9324 0.826265Z" fill="#D98900"/>
<path d="M95.9967 0.826265L99.0436 7.06064L105.934 8.04502C107.153 8.23252 107.622 9.73252 106.731 10.6231L101.809 15.4513L102.981 22.2481C103.169 23.4669 101.856 24.4044 100.778 23.8419L94.6373 20.6075L88.5436 23.8419C87.4654 24.4044 86.1529 23.4669 86.3404 22.2481L87.5123 15.4513L82.5904 10.6231C81.6998 9.73252 82.1686 8.23252 83.3873 8.04502L90.2311 7.06064L93.3248 0.826265C93.8404 -0.25186 95.4342 -0.298735 95.9967 0.826265Z" fill="#D98900"/>
<path d="M137.061 0.826265L140.108 7.06064L146.999 8.04502C148.217 8.23252 148.686 9.73252 147.795 10.6231L142.874 15.4513L144.045 22.2481C144.233 23.4669 142.92 24.4044 141.842 23.8419L135.702 20.6075L129.608 23.8419C128.53 24.4044 127.217 23.4669 127.405 22.2481L128.577 15.4513L123.655 10.6231C122.764 9.73252 123.233 8.23252 124.452 8.04502L131.295 7.06064L134.389 0.826265C134.905 -0.25186 136.499 -0.298735 137.061 0.826265Z" fill="#D98900"/>
<path d="M178.125 0.826265L181.172 7.06064L188.063 8.04502C189.281 8.23252 189.75 9.73252 188.86 10.6231L183.938 15.4513L185.11 22.2481C185.297 23.4669 183.985 24.4044 182.906 23.8419L176.766 20.6075L170.672 23.8419C169.594 24.4044 168.281 23.4669 168.469 22.2481L169.641 15.4513L164.719 10.6231C163.828 9.73252 164.297 8.23252 165.516 8.04502L172.36 7.06064L175.453 0.826265C175.969 -0.25186 177.563 -0.298735 178.125 0.826265Z" fill="#D98900"/>
</svg>
