<svg width="1280" height="219" viewBox="0 0 1280 219" fill="none" xmlns="http://www.w3.org/2000/svg">
<g opacity="0.18">
<g clip-path="url(#clip0_19_925)">
<path d="M-589.397 367.567C-425.404 278.401 -374.042 372.864 -210.049 283.697C-46.0559 194.53 -97.4178 100.067 66.5281 10.9258C230.474 -78.2154 281.883 16.2223 445.876 -72.9445C609.869 -162.111 558.507 -256.575 722.5 -345.741C886.493 -434.908 937.855 -340.445 1101.9 -429.637C1265.94 -518.83 1214.53 -613.268 1378.52 -702.434" stroke="white" stroke-miterlimit="10"/>
<path d="M-794.949 -10.4775C-630.956 -99.6444 -579.594 -5.18101 -415.601 -94.3478C-251.608 -183.515 -302.97 -277.978 -139.024 -367.119C24.9221 -456.26 76.3312 -361.823 240.324 -450.989C404.317 -540.156 352.955 -634.62 516.948 -723.786C680.941 -812.953 732.303 -718.49 896.344 -807.682C1060.38 -896.875 1008.97 -991.312 1172.97 -1080.48" stroke="white" stroke-miterlimit="10"/>
<path d="M-383.845 745.615C-219.852 656.448 -168.386 751.104 -4.39301 661.937C159.6 572.77 108.134 478.115 272.08 388.974C436.026 299.832 487.539 394.462 651.532 305.295C815.525 216.129 764.059 121.473 928.052 32.3064C1092.04 -56.8604 1143.51 37.795 1307.55 -51.3975C1471.59 -140.59 1420.08 -235.22 1584.07 -324.386" stroke="white" stroke-miterlimit="10"/>
<path d="M-101.145 1265.55C62.8478 1176.38 114.21 1270.84 278.203 1181.68C442.196 1092.51 390.834 998.046 554.78 908.905C718.726 819.764 770.135 914.202 934.128 825.035C1098.12 735.868 1046.76 641.405 1210.75 552.238C1374.75 463.071 1426.11 557.535 1590.15 468.342C1754.19 379.15 1702.78 284.712 1866.77 195.545" stroke="white" stroke-miterlimit="10"/>
<path d="M-486.569 556.688C-322.576 467.521 -271.214 561.984 -107.221 472.817C56.7722 383.65 5.41036 289.187 169.356 200.046C333.302 110.905 384.711 205.342 548.704 116.176C712.697 27.0088 661.335 -67.4545 825.328 -156.621C989.321 -245.788 1040.68 -151.325 1204.72 -240.517C1368.76 -329.71 1317.35 -424.147 1481.35 -513.314" stroke="white" stroke-miterlimit="10"/>
<path d="M-692.121 178.641C-528.128 89.4738 -476.766 183.937 -312.773 94.7703C-148.78 5.60354 -200.142 -88.8598 -36.1961 -178.001C127.75 -267.142 179.159 -172.704 343.152 -261.871C507.145 -351.038 455.783 -445.501 619.776 -534.668C783.769 -623.835 835.131 -529.372 999.171 -618.564C1163.21 -707.757 1111.8 -802.194 1275.8 -891.361" stroke="white" stroke-miterlimit="10"/>
<path d="M-281.016 934.734C-117.023 845.568 -65.6614 940.031 98.3317 850.864C262.325 761.697 210.963 667.234 374.909 578.093C538.855 488.952 590.264 583.389 754.257 494.222C918.25 405.056 866.888 310.592 1030.88 221.426C1194.87 132.259 1246.24 226.722 1410.28 137.53C1574.32 48.3371 1522.91 -46.1005 1686.9 -135.267" stroke="white" stroke-miterlimit="10"/>
<path d="M-538.035 462.032C-374.042 372.865 -322.575 467.521 -158.582 378.354C5.41084 289.187 -46.0555 194.532 117.89 105.391C281.836 16.2495 333.35 110.879 497.343 21.7124C661.336 -67.4544 609.87 -162.11 773.863 -251.277C937.856 -340.443 989.322 -245.788 1153.36 -334.98C1317.4 -424.173 1265.89 -518.803 1429.88 -607.97" stroke="white" stroke-miterlimit="10"/>
<path d="M-743.587 83.9854C-579.594 -5.18146 -528.128 89.4739 -364.134 0.307123C-200.141 -88.8597 -251.608 -183.515 -87.6618 -272.656C76.284 -361.797 127.798 -267.168 291.791 -356.334C455.784 -445.501 404.317 -540.157 568.31 -629.323C732.303 -718.49 783.77 -623.835 947.81 -713.027C1111.85 -802.22 1060.34 -896.85 1224.33 -986.016" stroke="white" stroke-miterlimit="10"/>
<path d="M-332.379 840.269C-168.386 751.102 -117.024 845.565 46.9691 756.398C210.962 667.231 159.6 572.768 323.546 483.627C487.492 394.486 538.901 488.923 702.894 399.757C866.887 310.59 815.525 216.127 979.518 126.96C1143.51 37.7929 1194.87 132.256 1358.91 43.0638C1522.95 -46.1287 1471.54 -140.566 1635.54 -229.733" stroke="white" stroke-miterlimit="10"/>
<path d="M-435.207 651.151C-271.214 561.985 -219.852 656.448 -55.8588 567.281C108.134 478.114 56.7724 383.651 220.718 294.51C384.664 205.369 436.073 299.806 600.066 210.639C764.059 121.473 712.697 27.0094 876.69 -62.1574C1040.68 -151.324 1092.05 -56.8609 1256.09 -146.053C1420.13 -235.246 1368.72 -329.684 1532.71 -418.85" stroke="white" stroke-miterlimit="10"/>
<path d="M-152.508 1171.09C11.4855 1081.92 62.8474 1176.38 226.84 1087.22C390.834 998.049 339.472 903.585 503.418 814.444C667.363 725.303 718.772 819.741 882.766 730.574C1046.76 641.407 995.397 546.944 1159.39 457.777C1323.38 368.61 1374.74 463.074 1538.78 373.881C1702.83 284.689 1651.42 190.251 1815.41 101.084" stroke="white" stroke-miterlimit="10"/>
<path d="M-640.759 273.105C-476.766 183.939 -425.404 278.402 -261.411 189.235C-97.4176 100.068 -148.779 5.60503 15.1664 -83.5361C179.112 -172.677 230.521 -78.2396 394.514 -167.406C558.508 -256.573 507.146 -351.037 671.139 -440.203C835.132 -529.37 886.494 -434.907 1050.53 -524.099C1214.57 -613.292 1163.17 -707.729 1327.16 -796.896" stroke="white" stroke-miterlimit="10"/>
<path d="M-229.655 1029.2C-65.662 940.03 -14.3001 1034.49 149.693 945.327C313.686 856.16 262.324 761.697 426.27 672.556C590.216 583.415 641.625 677.852 805.618 588.685C969.611 499.519 918.249 405.055 1082.24 315.888C1246.24 226.722 1297.6 321.185 1461.64 231.993C1625.68 142.8 1574.27 48.3623 1738.26 -40.8045" stroke="white" stroke-miterlimit="10"/>
<path d="M-563.716 414.799C-399.723 325.632 -348.257 420.287 -184.263 331.121C-20.2704 241.954 -71.7367 147.298 92.2091 58.1572C256.155 -30.9839 307.669 63.6458 471.662 -25.521C635.655 -114.688 584.188 -209.343 748.181 -298.51C912.174 -387.677 963.641 -293.021 1127.68 -382.214C1291.72 -471.406 1240.21 -566.036 1404.2 -655.203" stroke="white" stroke-miterlimit="10"/>
<path d="M-769.268 36.7549C-605.275 -52.4119 -553.913 42.0514 -389.92 -47.1154C-225.927 -136.282 -277.289 -230.746 -113.343 -319.887C50.6027 -409.028 102.012 -314.59 266.005 -403.757C429.998 -492.924 378.636 -587.387 542.629 -676.554C706.622 -765.721 757.984 -671.257 922.024 -760.45C1086.06 -849.642 1034.66 -944.08 1198.65 -1033.25" stroke="white" stroke-miterlimit="10"/>
<path d="M-358.164 792.847C-194.171 703.68 -142.704 798.335 21.2886 709.168C185.282 620.002 133.815 525.346 297.761 436.205C461.707 347.064 513.221 441.694 677.214 352.527C841.207 263.36 789.74 168.705 953.733 79.5379C1117.73 -9.62894 1169.19 85.0264 1333.23 -4.16604C1497.27 -93.3585 1445.76 -187.988 1609.75 -277.155" stroke="white" stroke-miterlimit="10"/>
<path d="M-460.888 603.918C-296.895 514.751 -245.533 609.215 -81.5399 520.048C82.4531 430.881 31.0913 336.418 195.037 247.276C358.983 158.135 410.392 252.573 574.385 163.406C738.378 74.2393 687.016 -20.224 851.009 -109.391C1015 -198.558 1066.36 -104.094 1230.4 -193.287C1394.44 -282.479 1343.04 -376.917 1507.03 -466.084" stroke="white" stroke-miterlimit="10"/>
<path d="M-178.293 1123.66C-14.2997 1034.49 37.1667 1129.15 201.16 1039.98C365.153 950.815 313.686 856.16 477.632 767.019C641.578 677.877 693.092 772.507 857.085 683.34C1021.08 594.174 969.611 499.518 1133.6 410.351C1297.6 321.185 1349.06 415.84 1513.1 326.647C1677.14 237.455 1625.63 142.825 1789.62 53.6584" stroke="white" stroke-miterlimit="10"/>
<path d="M-666.44 225.873C-502.447 136.706 -451.085 231.17 -287.092 142.003C-123.098 52.836 -174.46 -41.6274 -10.5145 -130.769C153.431 -219.91 204.84 -125.472 368.834 -214.639C532.827 -303.806 481.465 -398.269 645.458 -487.436C809.451 -576.603 860.813 -482.139 1024.85 -571.332C1188.89 -660.524 1137.48 -754.962 1301.48 -844.129" stroke="white" stroke-miterlimit="10"/>
<path d="M-255.335 981.967C-91.3424 892.8 -39.9805 987.263 124.013 898.097C288.006 808.93 236.644 714.466 400.59 625.325C564.536 536.184 615.945 630.622 779.938 541.455C943.931 452.288 892.569 357.825 1056.56 268.658C1220.55 179.491 1271.92 273.954 1435.96 184.762C1600 95.5696 1548.59 1.13188 1712.58 -88.0349" stroke="white" stroke-miterlimit="10"/>
<path d="M-512.25 509.455C-348.256 420.288 -296.895 514.752 -132.901 425.585C31.0916 336.418 -20.2703 241.955 143.676 152.813C307.621 63.6723 359.031 158.11 523.024 68.9432C687.017 -20.2236 635.655 -114.687 799.648 -203.854C963.641 -293.021 1015 -198.557 1179.04 -287.75C1343.08 -376.942 1291.67 -471.38 1455.67 -560.547" stroke="white" stroke-miterlimit="10"/>
<path d="M-717.906 131.218C-553.913 42.051 -502.447 136.706 -338.454 47.5395C-174.461 -41.6273 -225.927 -136.283 -61.981 -225.424C101.965 -314.565 153.478 -219.935 317.471 -309.102C481.464 -398.269 429.998 -492.924 593.991 -582.091C757.984 -671.258 809.451 -576.602 973.491 -665.795C1137.53 -754.987 1086.02 -849.617 1250.01 -938.784" stroke="white" stroke-miterlimit="10"/>
<path d="M-306.698 887.502C-142.704 798.335 -91.3425 892.798 72.6505 803.632C236.644 714.465 185.282 620.002 349.228 530.86C513.173 441.719 564.583 536.157 728.576 446.99C892.569 357.823 841.207 263.36 1005.2 174.193C1169.19 85.0263 1220.55 179.49 1384.6 90.2972C1548.64 1.10472 1497.23 -93.333 1661.22 -182.5" stroke="white" stroke-miterlimit="10"/>
<path d="M-820.63 -57.709C-656.637 -146.876 -605.275 -52.4125 -441.282 -141.579C-277.289 -230.746 -328.651 -325.209 -164.705 -414.351C-0.758921 -503.492 50.6502 -409.054 214.643 -498.221C378.636 -587.388 327.274 -681.851 491.267 -771.018C655.26 -860.185 706.622 -765.721 870.663 -854.914C1034.7 -944.106 983.294 -1038.54 1147.29 -1127.71" stroke="white" stroke-miterlimit="10"/>
<path d="M-409.526 698.384C-245.533 609.217 -194.171 703.68 -30.1781 614.514C133.815 525.347 82.4531 430.883 246.399 341.742C410.345 252.601 461.754 347.039 625.747 257.872C789.74 168.705 738.378 74.2418 902.371 -14.925C1066.36 -104.092 1117.73 -9.62851 1281.77 -98.821C1445.81 -188.013 1394.4 -282.451 1558.39 -371.618" stroke="white" stroke-miterlimit="10"/>
<path d="M-126.827 1218.32C37.1662 1129.15 88.5281 1223.61 252.521 1134.45C416.514 1045.28 365.152 950.816 529.098 861.675C693.044 772.534 744.453 866.971 908.446 777.805C1072.44 688.638 1021.08 594.174 1185.07 505.008C1349.06 415.841 1400.43 510.304 1564.47 421.112C1728.51 331.919 1677.1 237.481 1841.09 148.315" stroke="white" stroke-miterlimit="10"/>
<path d="M-615.078 320.337C-451.085 231.17 -399.723 325.633 -235.73 236.467C-71.737 147.3 -123.099 52.8365 40.847 -36.3047C204.793 -125.446 256.202 -31.0082 420.195 -120.175C584.188 -209.342 532.826 -303.805 696.819 -392.972C860.812 -482.139 912.174 -387.675 1076.21 -476.868C1240.25 -566.06 1188.85 -660.498 1352.84 -749.665" stroke="white" stroke-miterlimit="10"/>
<path d="M-203.974 1076.43C-39.9808 987.263 11.4855 1081.92 175.479 992.751C339.472 903.585 288.005 808.929 451.951 719.788C615.897 630.647 667.411 725.277 831.404 636.11C995.397 546.943 943.93 452.288 1107.92 363.121C1271.92 273.954 1323.38 368.609 1487.42 279.417C1651.46 190.225 1599.95 95.5948 1763.94 6.42795" stroke="white" stroke-miterlimit="10"/>
</g>
</g>
<defs>
<clipPath id="clip0_19_925">
<rect y="-194" width="1280" height="413" fill="white"/>
</clipPath>
</defs>
</svg>
