<svg width="10" height="10" viewBox="0 0 10 10" fill="none" xmlns="http://www.w3.org/2000/svg">
<path d="M9.93817 0.516667C9.8536 0.313042 9.69179 0.151229 9.48817 0.0666666C9.38798 0.0239658 9.2804 0.00131666 9.1715 0H0.838165C0.617152 0 0.40519 0.0877975 0.24891 0.244078C0.0926295 0.400358 0.00483195 0.61232 0.00483195 0.833333C0.00483195 1.05435 0.0926295 1.26631 0.24891 1.42259C0.40519 1.57887 0.617152 1.66667 0.838165 1.66667H7.16317L0.246499 8.575C0.168392 8.65247 0.106397 8.74464 0.0640893 8.84619C0.0217821 8.94774 0 9.05666 0 9.16667C0 9.27668 0.0217821 9.3856 0.0640893 9.48715C0.106397 9.5887 0.168392 9.68086 0.246499 9.75833C0.323968 9.83644 0.416135 9.89844 0.517685 9.94074C0.619234 9.98305 0.728155 10.0048 0.838165 10.0048C0.948175 10.0048 1.0571 9.98305 1.15865 9.94074C1.2602 9.89844 1.35236 9.83644 1.42983 9.75833L8.33817 2.84167V9.16667C8.33817 9.38768 8.42596 9.59964 8.58224 9.75592C8.73852 9.9122 8.95049 10 9.1715 10C9.39251 10 9.60448 9.9122 9.76076 9.75592C9.91704 9.59964 10.0048 9.38768 10.0048 9.16667V0.833333C10.0035 0.724436 9.98087 0.616852 9.93817 0.516667V0.516667Z" fill="#111418"/>
</svg>
